<svg xmlns="http://www.w3.org/2000/svg" version="1.1" xmlns:xlink="http://www.w3.org/1999/xlink" xmlns:svgjs="http://svgjs.dev/svgjs" width="2000" height="1500" viewBox="0 0 2000 1500"><rect width="2000" height="1500" fill="#5a464c"></rect><g transform="matrix(0.75,0,0,0.75,249.090909090909,282.7536437246963)"><svg viewBox="0 0 396 247" data-background-color="#5a464c" preserveAspectRatio="xMidYMid meet" height="1247" width="2000" xmlns="http://www.w3.org/2000/svg" xmlns:xlink="http://www.w3.org/1999/xlink"><g id="tight-bounds" transform="matrix(1,0,0,1,0.2400000000000091,-0.09999999999999432)"><svg viewBox="0 0 395.52 247.2" height="247.2" width="395.52"><g><svg></svg></g><g><svg viewBox="0 0 395.52 247.2" height="247.2" width="395.52"><g transform="matrix(1,0,0,1,118.65599999999999,84.5442441505595)"><svg viewBox="0 0 158.208 78.11151169888097" height="78.11151169888097" width="158.208"><g><svg viewBox="0 0 158.208 78.11151169888097" height="78.11151169888097" width="158.208"><g><svg viewBox="0 0 158.208 78.11151169888097" height="78.11151169888097" width="158.208"><g><svg viewBox="0 0 158.208 78.11151169888097" height="78.11151169888097" width="158.208"><g><svg viewBox="0 0 158.208 78.11151169888097" height="78.11151169888097" width="158.208"><g><svg viewBox="0 0 158.208 78.11151169888097" height="78.11151169888097" width="158.208"><g transform="matrix(1,0,0,1,0,0)"><svg width="158.208" viewBox="3.61 -35.55 72 35.55" height="78.11151169888097" data-palette-color="#b5d6b2"><path d="M3.61-35.55L11.62-35.55 21.88-8.3 32.1-35.55 40.09-35.55 40.09 0 33.94 0 33.94-11.72 34.55-27.39 24.05 0 19.63 0 9.16-27.37 9.77-11.72 9.77 0 3.61 0 3.61-35.55ZM75.61-35.55L75.61 0 69.46 0 69.46-15.8 53.56-15.8 53.56 0 47.39 0 47.39-35.55 53.56-35.55 53.56-20.75 69.46-20.75 69.46-35.55 75.61-35.55Z" opacity="1" transform="matrix(1,0,0,1,0,0)" fill="#b5d6b2" class="undefined-text-0" data-fill-palette-color="primary" id="text-0"></path></svg></g></svg></g></svg></g></svg></g></svg></g></svg></g></svg></g><g mask="url(#bf46739d-7733-4071-bd56-3e4dcd162624)"><g transform="matrix(8.469190384084001, 0, 0, 8.469190384084001, 62.25295385465597, 1)"><svg xmlns="http://www.w3.org/2000/svg" xmlns:xlink="http://www.w3.org/1999/xlink" version="1.1" x="0" y="0" viewBox="0 1.524 32 28.951999999999998" enable-background="new 0 0 32 32" xml:space="preserve" width="32" height="28.951999999999998" class="icon-none" data-fill-palette-color="accent" id="none"><g fill="#fffacc" data-fill-palette-color="accent"><g fill="#fffacc" data-fill-palette-color="accent"><rect x="8.977" y="24.892" width="14.047" height="1" fill="#fffacc" data-fill-palette-color="accent"></rect><rect x="10.366" y="29.476" width="11.268" height="1" fill="#fffacc" data-fill-palette-color="accent"></rect><path d="M0 20.354h32V1.524H0V20.354zM31 19.354H2.372L31 2.888V19.354zM1 2.524h28.628L1 18.99V2.524z" fill="#fffacc" data-fill-palette-color="accent"></path></g></g></svg></g></g></svg></g><defs><mask id="bf46739d-7733-4071-bd56-3e4dcd162624"><rect width="640" height="400" fill="white"></rect><rect width="174.02880000000002" height="114.99201817053103" fill="black" x="232.98559999999998" y="142.5039909147345" id="transform-me" transform="matrix(1,0,0,1,-122.24000000000001,-76.4)"></rect></mask></defs></svg><rect width="395.52" height="247.2" fill="none" stroke="none" visibility="hidden"></rect></g></svg></g></svg>